<svg xmlns="http://www.w3.org/2000/svg" height="24px" viewBox="0 -960 960 960" width="24px" fill="currentColor"><path d="M320-480v-80h80v80h-80Zm240 0v-80h80v80h-80ZM120-80v-320h40v-160q0-66 25-124.5t68.5-102Q297-830 355.5-855T480-880q66 0 124.5 25t102 68.5Q750-743 775-684.5T800-560v160h40v320H120Zm80-80h80v-160h-80v160Zm160 0h80v-160h-80v160ZM240-400h200v-397q-86 14-143 8‚āÄ.5T24‚āÄ-56‚āÄv16‚āÄZm28‚āÄ ‚āÄh2‚āÄ‚āÄv-16‚āÄq‚āÄ-9‚āÄ-57-156.5T5‚āā‚āÄ-797v397Zm‚āÄ 24‚āÄh8‚āÄv-16‚āÄh-8‚āÄv16‚āÄZm16‚āÄ ‚āÄh8‚āÄv-16‚āÄh-8‚āÄv16‚āÄZ"/></svg>